<svg width="600" height="220" viewBox="0 0 600 220" fill="none" xmlns="http://www.w3.org/2000/svg">
<path d="M446 122.928V158C446 158.552 445.552 159 445 159H439C438.448 159 438 158.552 438 158V96.6983C438 95.0415 439.343 93.6983 441 93.6983H443C444.657 93.6983 446 95.0415 446 96.6983V99.8241C446 100.677 446.999 101.142 447.664 100.608C451.834 97.2597 459.597 92 469.935 92C485.96 92 500.148 102.587 500.009 120.543V158C500.009 158.552 499.561 159 499.009 159H493.009C492.457 159 492.009 158.552 492.009 158V120.543C492.009 108.339 479.968 100 469.935 100C459.623 100 446 106.936 446 122.928Z" fill="black"/>
<path d="M391.989 160C373.398 160 359 146.456 359 125.791C359 105.125 373.398 92 391.989 92C410.581 92 424 105.125 424 125.791C424 128.257 421.994 130.119 419.527 130.119H391.5H368.635C368.035 130.119 367.569 130.645 367.668 131.236C369.691 143.36 380.323 152 391.989 152C403.566 152 409.941 146.924 414.014 140.129C414.244 139.745 414.699 139.545 415.125 139.686C417.129 140.348 418.578 141.493 420.59 142.216C421.185 142.43 421.514 143.104 421.226 143.667C415.607 154.652 404.846 160 391.989 160ZM367.519 122.474C367.498 123.02 367.946 123.459 368.492 123.459H391.5H414.508C415.054 123.459 415.502 123.02 415.485 122.473C415.116 110.455 404.801 100 391.989 100C380.014 100 367.98 110.455 367.519 122.474Z" fill="black"/>
<path d="M340 61C340.552 61 341 61.4477 341 62V158C341 158.552 340.552 159 340 159H334C333.448 159 333 158.552 333 158V62C333 61.4477 333.448 61 334 61H340Z" fill="black"/>
<path d="M257 122.923V158C257 158.552 256.552 159 256 159H250C249.448 159 249 158.552 249 158V62C249 61.4477 249.448 61 250 61L256 61C256.552 61 257 61.4477 257 62V99.8198C257 100.673 257.999 101.138 258.664 100.604C262.834 97.2554 270.597 91.9957 280.935 91.9957C296.96 91.9957 311.148 102.583 311.009 120.538V158C311.009 158.552 310.561 159 310.009 159H304.009C303.457 159 303.009 158.552 303.009 158V120.538C303.009 108.334 290.968 99.9957 280.935 99.9957C270.623 99.9957 257 106.932 257 122.923Z" fill="black"/>
<path d="M230 94.7537C231.657 94.7537 233 96.0968 233 97.7537V158C233 158.552 232.552 159 232 159H226.001C225.449 159 225.001 158.552 225.001 158V151.45C225.001 150.432 223.501 149.966 222.81 150.714C217.031 156.97 206.482 160 198.225 160C179.736 160 165 146.813 165 126.148C165 105.483 179.736 92 198.225 92C214.54 92 220.185 97.8391 223.692 100.243C224.284 100.649 225.001 100.201 225.001 99.4835V97.7537C225.001 96.0968 226.344 94.7537 228.001 94.7537H230ZM173.001 126.148C173.001 140.669 183.741 151.999 198.225 151.999C211.571 151.999 226 142.345 226 126.148C226 109.951 211.615 100 198.13 100C184.645 100 173.001 111.207 173.001 126.148Z" fill="black"/>
<path d="M152.673 146.101C153.085 145.774 153.679 145.782 154.057 146.148L158.376 150.328C158.788 150.728 158.782 151.392 158.344 151.763C152.078 157.049 142.109 160 133.34 160C114.622 160 99 146.456 99 125.791C99 105.125 114.622 92 133.34 92C142.106 92 152.866 94.949 159.198 100.11C159.643 100.473 159.657 101.137 159.25 101.541L155.05 105.708C154.678 106.077 154.088 106.095 153.669 105.782C148.894 102.211 139.621 100 133.34 100C119.689 100 107 110.83 107 125.91C107 140.99 119.689 152 133.34 152C139.631 152 147.885 149.909 152.673 146.101Z" fill="black"/>
</svg>
